<?xml version="1.0" standalone="no"?>
<!DOCTYPE svg PUBLIC "-//W3C//DTD SVG 20010904//EN"
 "http://www.w3.org/TR/2001/REC-SVG-20010904/DTD/svg10.dtd">
<svg version="1.0" xmlns="http://www.w3.org/2000/svg"
 width="436.000000pt" height="65.000000pt" viewBox="0 0 436.000000 65.000000"
 preserveAspectRatio="xMidYMid meet">

<g transform="translate(0.000000,65.000000) scale(0.100000,-0.100000)"
fill="#000000" stroke="none">
<path d="M183 630 c-130 -26 -173 -102 -173 -305 0 -175 33 -253 122 -291 36
-15 80 -19 261 -22 l218 -4 -3 164 -3 163 -72 3 -73 3 0 -96 0 -95 -111 0
c-61 0 -119 5 -131 11 -32 17 -48 71 -48 164 0 93 16 147 48 164 13 7 91 11
201 11 l181 0 0 70 0 70 -187 -1 c-104 -1 -207 -5 -230 -9z"/>
<path d="M720 325 l0 -315 75 0 74 0 3 137 3 138 92 0 c62 0 96 -4 105 -13 9
-9 14 -53 16 -137 l4 -125 75 0 75 0 -4 149 c-3 132 -5 153 -24 178 -37 50
-84 66 -221 71 l-123 5 0 113 0 114 -75 0 -75 0 0 -315z"/>
<path d="M2830 325 l0 -315 75 0 75 0 0 80 0 80 35 0 c32 0 41 -7 97 -80 l63
-80 79 0 78 0 -18 28 c-9 15 -43 61 -75 102 l-57 76 75 97 74 97 -78 -1 -78 0
-63 -80 c-57 -71 -66 -79 -97 -79 l-35 0 0 195 0 195 -75 0 -75 0 0 -315z"/>
<path d="M2470 480 l0 -70 -40 0 -40 0 0 -50 0 -50 40 0 40 0 0 -109 c0 -102
2 -111 25 -139 29 -35 91 -52 185 -52 l60 0 0 55 0 55 -48 0 c-26 0 -53 5 -60
12 -7 7 -12 44 -12 95 l0 83 65 0 65 0 0 50 0 50 -65 0 -65 0 0 70 0 70 -75 0
-75 0 0 -70z"/>
<path d="M4070 480 l0 -70 -40 0 -40 0 0 -49 0 -50 38 -3 37 -3 5 -110 c3 -60
9 -118 14 -127 14 -30 76 -51 168 -56 l88 -5 0 57 0 56 -44 0 c-75 0 -76 1
-76 101 l0 89 65 0 65 0 0 50 0 50 -65 0 -65 0 0 70 0 70 -75 0 -75 0 0 -70z"/>
<path d="M1472 410 c-114 -24 -144 -71 -140 -212 3 -111 17 -139 84 -173 58
-29 261 -29 318 0 53 27 77 62 87 127 19 116 -12 206 -82 241 -43 21 -202 31
-267 17z m166 -111 c63 -22 67 -150 7 -177 -33 -15 -107 -15 -140 0 -56 25
-54 156 3 176 37 14 92 14 130 1z"/>
<path d="M1964 399 c-43 -12 -66 -41 -71 -91 -11 -102 27 -131 186 -138 116
-5 116 -5 116 -30 l0 -25 -150 -5 -150 -5 -3 -48 -3 -49 190 4 c174 3 192 5
218 24 54 41 54 147 0 188 -23 17 -47 21 -145 26 -102 4 -117 7 -120 23 -8 40
13 47 154 47 l134 0 0 45 0 45 -162 -1 c-90 0 -177 -5 -194 -10z"/>
<path d="M3400 270 c0 -175 9 -202 77 -233 43 -19 69 -22 241 -25 l192 -4 0
201 0 201 -75 0 -75 0 0 -140 0 -140 -85 0 c-121 0 -125 5 -125 160 l0 120
-75 0 -75 0 0 -140z"/>
</g>
</svg>
